<svg width="25" height="24" viewBox="0 0 25 24" fill="none" xmlns="http://www.w3.org/2000/svg">
<path d="M17.0832 3.56V2C17.0832 1.59 16.7432 1.25 16.3332 1.25C15.9232 1.25 15.5832 1.59 15.5832 2V3.5H9.08324V2C9.08324 1.59 8.74324 1.25 8.33324 1.25C7.92324 1.25 7.58324 1.59 7.58324 2V3.56C4.88324 3.81 3.57324 5.42 3.37324 7.81C3.35324 8.1 3.59324 8.34 3.87324 8.34H20.7932C21.0832 8.34 21.3232 8.09 21.2932 7.81C21.0932 5.42 19.7832 3.81 17.0832 3.56Z" fill="black"/>
<path d="M20.3333 9.83997H4.33325C3.78325 9.83997 3.33325 10.29 3.33325 10.84V17C3.33325 20 4.83325 22 8.33325 22H16.3333C19.8333 22 21.3333 20 21.3333 17V10.84C21.3333 10.29 20.8833 9.83997 20.3333 9.83997ZM9.54325 18.21C9.49325 18.25 9.44325 18.3 9.39325 18.33C9.33325 18.37 9.27325 18.4 9.21325 18.42C9.15325 18.45 9.09325 18.47 9.03325 18.48C8.96325 18.49 8.90325 18.5 8.83325 18.5C8.70325 18.5 8.57325 18.47 8.45325 18.42C8.32325 18.37 8.22325 18.3 8.12325 18.21C7.94325 18.02 7.83325 17.76 7.83325 17.5C7.83325 17.24 7.94325 16.98 8.12325 16.79C8.22325 16.7 8.32325 16.63 8.45325 16.58C8.63325 16.5 8.83325 16.48 9.03325 16.52C9.09325 16.53 9.15325 16.55 9.21325 16.58C9.27325 16.6 9.33325 16.63 9.39325 16.67C9.44325 16.71 9.49325 16.75 9.54325 16.79C9.72325 16.98 9.83325 17.24 9.83325 17.5C9.83325 17.76 9.72325 18.02 9.54325 18.21ZM9.54325 14.71C9.35325 14.89 9.09325 15 8.83325 15C8.57325 15 8.31325 14.89 8.12325 14.71C7.94325 14.52 7.83325 14.26 7.83325 14C7.83325 13.74 7.94325 13.48 8.12325 13.29C8.40325 13.01 8.84325 12.92 9.21325 13.08C9.34325 13.13 9.45325 13.2 9.54325 13.29C9.72325 13.48 9.83325 13.74 9.83325 14C9.83325 14.26 9.72325 14.52 9.54325 14.71ZM13.0433 18.21C12.8533 18.39 12.5933 18.5 12.3333 18.5C12.0733 18.5 11.8133 18.39 11.6233 18.21C11.4433 18.02 11.3333 17.76 11.3333 17.5C11.3333 17.24 11.4433 16.98 11.6233 16.79C11.9933 16.42 12.6733 16.42 13.0433 16.79C13.2233 16.98 13.3333 17.24 13.3333 17.5C13.3333 17.76 13.2233 18.02 13.0433 18.21ZM13.0433 14.71C12.9933 14.75 12.9433 14.79 12.8933 14.83C12.8333 14.87 12.7733 14.9 12.7133 14.92C12.6533 14.95 12.5933 14.97 12.5333 14.98C12.4633 14.99 12.4033 15 12.3333 15C12.0733 15 11.8133 14.89 11.6233 14.71C11.4433 14.52 11.3333 14.26 11.3333 14C11.3333 13.74 11.4433 13.48 11.6233 13.29C11.7133 13.2 11.8233 13.13 11.9533 13.08C12.3233 12.92 12.7633 13.01 13.0433 13.29C13.2233 13.48 13.3333 13.74 13.3333 14C13.3333 14.26 13.2233 14.52 13.0433 14.71ZM16.5433 18.21C16.3533 18.39 16.0933 18.5 15.8333 18.5C15.5733 18.5 15.3133 18.39 15.1233 18.21C14.9433 18.02 14.8333 17.76 14.8333 17.5C14.8333 17.24 14.9433 16.98 15.1233 16.79C15.4933 16.42 16.1733 16.42 16.5433 16.79C16.7233 16.98 16.8333 17.24 16.8333 17.5C16.8333 17.76 16.7233 18.02 16.5433 18.21ZM16.5433 14.71C16.4933 14.75 16.4433 14.79 16.3933 14.83C16.3333 14.87 16.2733 14.9 16.2133 14.92C16.1533 14.95 16.0933 14.97 16.0333 14.98C15.9633 14.99 15.8933 15 15.8333 15C15.5733 15 15.3133 14.89 15.1233 14.71C14.9433 14.52 14.8333 14.26 14.8333 14C14.8333 13.74 14.9433 13.48 15.1233 13.29C15.2233 13.2 15.3233 13.13 15.4533 13.08C15.6333 13 15.8333 12.98 16.0333 13.02C16.0933 13.03 16.1533 13.05 16.2133 13.08C16.2733 13.1 16.3333 13.13 16.3933 13.17C16.4433 13.21 16.4933 13.25 16.5433 13.29C16.7233 13.48 16.8333 13.74 16.8333 14C16.8333 14.26 16.7233 14.52 16.5433 14.71Z" fill="black"/>
<path d="M20.3333 9.83984H4.33325C3.78325 9.83984 3.33325 10.2898 3.33325 10.8398V16.9998C3.33325 19.9998 4.83325 21.9998 8.33325 21.9998H16.3333C19.8333 21.9998 21.3333 19.9998 21.3333 16.9998V10.8398C21.3333 10.2898 20.8833 9.83984 20.3333 9.83984ZM9.54325 18.2098C9.49325 18.2498 9.44325 18.2998 9.39325 18.3298C9.33325 18.3698 9.27325 18.3998 9.21325 18.4198C9.15325 18.4498 9.09325 18.4698 9.03325 18.4798C8.96325 18.4898 8.90325 18.4998 8.83325 18.4998C8.70325 18.4998 8.57325 18.4698 8.45325 18.4198C8.32325 18.3698 8.22325 18.2998 8.12325 18.2098C7.94325 18.0198 7.83325 17.7598 7.83325 17.4998C7.83325 17.2398 7.94325 16.9798 8.12325 16.7898C8.22325 16.6998 8.32325 16.6298 8.45325 16.5798C8.63325 16.4998 8.83325 16.4798 9.03325 16.5198C9.09325 16.5298 9.15325 16.5498 9.21325 16.5798C9.27325 16.5998 9.33325 16.6298 9.39325 16.6698C9.44325 16.7098 9.49325 16.7498 9.54325 16.7898C9.72325 16.9798 9.83325 17.2398 9.83325 17.4998C9.83325 17.7598 9.72325 18.0198 9.54325 18.2098ZM9.54325 14.7098C9.35325 14.8898 9.09325 14.9998 8.83325 14.9998C8.57325 14.9998 8.31325 14.8898 8.12325 14.7098C7.94325 14.5198 7.83325 14.2598 7.83325 13.9998C7.83325 13.7398 7.94325 13.4798 8.12325 13.2898C8.40325 13.0098 8.84325 12.9198 9.21325 13.0798C9.34325 13.1298 9.45325 13.1998 9.54325 13.2898C9.72325 13.4798 9.83325 13.7398 9.83325 13.9998C9.83325 14.2598 9.72325 14.5198 9.54325 14.7098ZM13.0433 18.2098C12.8533 18.3898 12.5933 18.4998 12.3333 18.4998C12.0733 18.4998 11.8133 18.3898 11.6233 18.2098C11.4433 18.0198 11.3333 17.7598 11.3333 17.4998C11.3333 17.2398 11.4433 16.9798 11.6233 16.7898C11.9933 16.4198 12.6733 16.4198 13.0433 16.7898C13.2233 16.9798 13.3333 17.2398 13.3333 17.4998C13.3333 17.7598 13.2233 18.0198 13.0433 18.2098ZM13.0433 14.7098C12.9933 14.7498 12.9433 14.7898 12.8933 14.8298C12.8333 14.8698 12.7733 14.8998 12.7133 14.9198C12.6533 14.9498 12.5933 14.9698 12.5333 14.9798C12.4633 14.9898 12.4033 14.9998 12.3333 14.9998C12.0733 14.9998 11.8133 14.8898 11.6233 14.7098C11.4433 14.5198 11.3333 14.2598 11.3333 13.9998C11.3333 13.7398 11.4433 13.4798 11.6233 13.2898C11.7133 13.1998 11.8233 13.1298 11.9533 13.0798C12.3233 12.9198 12.7633 13.0098 13.0433 13.2898C13.2233 13.4798 13.3333 13.7398 13.3333 13.9998C13.3333 14.2598 13.2233 14.5198 13.0433 14.7098ZM16.5433 18.2098C16.3533 18.3898 16.0933 18.4998 15.8333 18.4998C15.5733 18.4998 15.3133 18.3898 15.1233 18.2098C14.9433 18.0198 14.8333 17.7598 14.8333 17.4998C14.8333 17.2398 14.9433 16.9798 15.1233 16.7898C15.4933 16.4198 16.1733 16.4198 16.5433 16.7898C16.7233 16.9798 16.8333 17.2398 16.8333 17.4998C16.8333 17.7598 16.7233 18.0198 16.5433 18.2098ZM16.5433 14.7098C16.4933 14.7498 16.4433 14.7898 16.3933 14.8298C16.3333 14.8698 16.2733 14.8998 16.2133 14.9198C16.1533 14.9498 16.0933 14.9698 16.0333 14.9798C15.9633 14.9898 15.8933 14.9998 15.8333 14.9998C15.5733 14.9998 15.3133 14.8898 15.1233 14.7098C14.9433 14.5198 14.8333 14.2598 14.8333 13.9998C14.8333 13.7398 14.9433 13.4798 15.1233 13.2898C15.2233 13.1998 15.3233 13.1298 15.4533 13.0798C15.6333 12.9998 15.8333 12.9798 16.0333 13.0198C16.0933 13.0298 16.1533 13.0498 16.2133 13.0798C16.2733 13.0998 16.3333 13.1298 16.3933 13.1698C16.4433 13.2098 16.4933 13.2498 16.5433 13.2898C16.7233 13.4798 16.8333 13.7398 16.8333 13.9998C16.8333 14.2598 16.7233 14.5198 16.5433 14.7098Z" fill="black"/>
</svg>
