<svg width="28" height="28" viewBox="0 0 28 28" fill="none" xmlns="http://www.w3.org/2000/svg">
<path fill-rule="evenodd" clip-rule="evenodd" d="M14 28C21.732 28 28 21.732 28 14C28 6.26801 21.732 0 14 0C6.26801 0 0 6.26801 0 14C0 21.732 6.26801 28 14 28ZM10.7071 9.29289C10.3166 8.90237 9.68342 8.90237 9.29289 9.29289C8.90237 9.68342 8.90237 10.3166 9.29289 10.7071L12.5858 14L9.29289 17.2929C8.90237 17.6834 8.90237 18.3166 9.29289 18.7071C9.68342 19.0976 10.3166 19.0976 10.7071 18.7071L14 15.4142L17.2929 18.7071C17.6834 19.0976 18.3166 19.0976 18.7071 18.7071C19.0976 18.3166 19.0976 17.6834 18.7071 17.2929L15.4142 14L18.7071 10.7071C19.0976 10.3166 19.0976 9.68342 18.7071 9.29289C18.3166 8.90237 17.6834 8.90237 17.2929 9.29289L14 12.5858L10.7071 9.29289Z" fill="white"/>
</svg>
